<svg xmlns="http://www.w3.org/2000/svg" width="265" height="85" viewBox="0 0 265 85"><defs><style>.a{fill:#fff;}.b{fill:#1dbba5;}</style></defs><g transform="translate(-58 -190.927)"><path class="a" d="M56.16,41.463a29.417,29.417,0,0,1-2.431,12.2,19.757,19.757,0,0,1-7,8.491,18.385,18.385,0,0,1-10.538,3.088q-7.335,0-13.565-5.778V74.325h9.191V85H0V74.325H7.865v-45.7H1.237V17.776H22.623v5.778q6.143-6.4,13.742-6.4a17.823,17.823,0,0,1,10.627,3.2,20.041,20.041,0,0,1,6.827,8.712A31.423,31.423,0,0,1,56.16,41.463ZM31.9,53.549a7.782,7.782,0,0,0,6.716-3.242q2.341-3.242,2.342-9.2,0-5.69-2.386-8.866a8.049,8.049,0,0,0-6.849-3.176,8.121,8.121,0,0,0-6.783,3.308q-2.541,3.308-2.54,8.91a14.189,14.189,0,0,0,2.629,8.756A8.2,8.2,0,0,0,31.9,53.549ZM100.145,36.3V53.461h7.512V64.136H85.387V60.519A22.262,22.262,0,0,1,72.75,64.842q-7.644,0-12.24-3.926a13.207,13.207,0,0,1-4.6-10.586,13.944,13.944,0,0,1,5.147-11.314q5.148-4.257,13.676-4.257a19.894,19.894,0,0,1,5.279.64,29.656,29.656,0,0,1,5.369,2.184V33.876a7.456,7.456,0,0,0-2.21-5.646q-2.209-2.117-6.628-2.117a11.732,11.732,0,0,0-8.528,3.705l-11.93-2.161q5.435-10.939,22.446-10.939,11.665,0,16.636,4.786T100.145,36.3ZM76.063,55.623q3.977,0,9.324-4.764V46.713q-4.772-3.088-8.749-3.088a7.07,7.07,0,0,0-4.861,1.5A5.438,5.438,0,0,0,70.1,49.4Q70.1,55.623,76.063,55.623Zm65.812-33.965V17.776h10.118V36.567H141.522q-3.712-7.675-11.312-7.675a9.82,9.82,0,0,0-7.665,3.4,12.26,12.26,0,0,0-3.027,8.469,14.205,14.205,0,0,0,2.894,9.2,9.4,9.4,0,0,0,7.711,3.595,12.4,12.4,0,0,0,6.628-1.941,14.827,14.827,0,0,0,5.126-5.47l11.488,5.073A27.585,27.585,0,0,1,144.218,61.8q-5.346,3.44-14.405,3.44-11.753,0-18.624-6.418t-6.871-17.8a23.832,23.832,0,0,1,3.16-12.219,23.313,23.313,0,0,1,20.347-11.645A24.873,24.873,0,0,1,141.875,21.658Zm39.168-3.882V28.627h-8.572V48.874a5.234,5.234,0,0,0,.839,3.242,3.786,3.786,0,0,0,3.137,1.081,13.994,13.994,0,0,0,4.6-.97V62.5a30.834,30.834,0,0,1-11.223,2.338q-6.053,0-9.08-3.066t-3.026-8.667V28.627h-5.877V17.776h5.877v-7.19L172.472,0V17.776Zm28.431,0V28.627H200.9V48.874a5.241,5.241,0,0,0,.839,3.242,3.788,3.788,0,0,0,3.138,1.081,14,14,0,0,0,4.6-.97V62.5a30.836,30.836,0,0,1-11.223,2.338q-6.054,0-9.081-3.066t-3.026-8.667V28.627h-5.877V17.776h5.877v-7.19L200.9,0V17.776Z" transform="translate(58 190.927)"/><path class="b" d="M27.764,55.525A27.77,27.77,0,0,1,16.956,2.181,27.77,27.77,0,0,1,38.569,53.343,27.589,27.589,0,0,1,27.764,55.525ZM19.933,14.236V40.349L41.464,27.293,19.933,14.236Z" transform="translate(267.476 204.411)"/></g></svg>